# xmcd
#
# Track frame offsets: 
#        150
#        16006
#        29901
#        44478
#        72022
#        88035
#        101254
#        118620
#        132839
#        148525
#        170498
#        187702
#        204020
#        218698
#        238837
#        254838
#        271073
#        287746
#        318619
#        334610
#
# Disc length: 4676 seconds
#
# Revision: 0
# Processed by: cddbd v1.5.2PL0 Copyright (c) Steve Scherf et al.
# Submitted via: ExactAudioCopy v1.0b3
#
DISCID=1f124214
DTITLE=Various Artist - Union Trance Vol. 1 - CD 2
DYEAR=1900
DGENRE=
TTITLE0=Cosmic Gate - Should've Known (Radio Edit)
TTITLE1=Ron Van Den Beuken - Find The Way (Radio Edit)
TTITLE2=4 Strings - Take Me Away (Into The Night 2006) (Purple Haze Rm
TTITLE2=x Edit)
TTITLE3=Tillmann Uhrmacher - The Pride In Your Eyes (Om Nama Shiva) (T
TTITLE3=illmann´s Midnight Xtd Club Mix)
TTITLE4=Megara Vs. DJ Lee - Outside World (Club Cut)
TTITLE5=DJ Sakin and Friends - For The Love Of A Princess (Braveheart 20
TTITLE5=06) (Scott Project Radio Mix)
TTITLE6=DJ Tatana Feat. Onita Boone - Be Free (Smith and Pledger Radio E
TTITLE6=dit)
TTITLE7=Sun:Port - Meet The Fallen Angel (Original Edit)
TTITLE8=Fred Baker Pres. Odyssey - Magic Pad (Fred Baker 2006 Radio Cu
TTITLE8=t)
TTITLE9=E-Craig - Home (Dub Mix)
TTITLE10=Selu Vibra - Divine (Radio Mix)
TTITLE11=Franky B. - Life's For Living (Bangbros Remix Edit)
TTITLE12=Alex M. Vs. Marc Van Damme - Stand Up (DJ Dean Radio Edit)
TTITLE13=X2Y - Jam The Nightclub
TTITLE14=Monti - The Rhythm
TTITLE15=Dan Winter - Check That Body
TTITLE16=Tova - Rebel
TTITLE17=Flexxa - Let There Be Light (D-Tune Remix)
TTITLE18=O'Heller Project - That's Just The Way It Is
TTITLE19=Nikita and Lance - Can't U See (Sunset Crew Radio Edit)
EXTD=
EXTT0=
EXTT1=
EXTT2=
EXTT3=
EXTT4=
EXTT5=
EXTT6=
EXTT7=
EXTT8=
EXTT9=
EXTT10=
EXTT11=
EXTT12=
EXTT13=
EXTT14=
EXTT15=
EXTT16=
EXTT17=
EXTT18=
EXTT19=
PLAYORDER=
